<svg id="UK" xmlns="http://www.w3.org/2000/svg" viewBox="0 0 1440 110"><defs><style>.cls-1{fill:red;}.cls-2,.cls-4,.cls-5{font-size:15px;}.cls-2,.cls-3,.cls-4,.cls-6{fill:#fff;}.cls-2,.cls-5{font-family:Helvetica-Bold, Helvetica;}.cls-2,.cls-5,.cls-6{font-weight:700;}.cls-4{opacity:0.8;font-family:Helvetica;}.cls-5{fill:#29abe2;}.cls-6{font-size:62px;font-family:Times-Bold, Times;}</style></defs><g id="back"><rect id="_1440px" data-name="1440px" width="1440" height="100"/></g><g id="red_shape" data-name="red shape"><g id="desktop"><rect id="red_shape-2" data-name="red shape" class="cls-1" x="338.64" y="88.25" width="93.94" height="21.75"/><text class="cls-2" transform="translate(348.53 103.3)">newspoint</text></g></g><g id="icons"><g id="burger-desktop"><rect class="cls-3" x="188.94" y="41.68" width="22.12" height="2.65"/><rect class="cls-3" x="188.94" y="48.68" width="22.12" height="2.65"/><rect class="cls-3" x="188.94" y="55.67" width="22.12" height="2.65"/></g><path id="search-desktop" class="cls-3" d="M1246.24,53.42a10.64,10.64,0,0,0,1.9-6.08,10.78,10.78,0,1,0-3.77,8.18l7,7,2-2Zm-8.86,1.89a8,8,0,1,1,8-8A8,8,0,0,1,1237.38,55.31Z"/></g><g id="tags"><text class="cls-4" transform="translate(516.26 55.32)">Billionaires</text><text class="cls-5" transform="translate(618.79 55.32)">Innovation</text><text class="cls-4" transform="translate(718.01 55.32)">Business</text><text class="cls-4" transform="translate(808.88 55.32)">Small Business</text><text class="cls-4" transform="translate(941.42 55.32)">Lifestyle</text><text class="cls-4" transform="translate(1026.44 55.32)">Breaking</text></g><g id="logo"><text id="desktop-2" data-name="desktop" class="cls-6" transform="translate(250 64.44)">British</text></g></svg>